<svg width="144" height="30" viewBox="0 0 144 30" fill="none" xmlns="http://www.w3.org/2000/svg">
<path d="M1.728 25V7.12H9.264C10.448 7.12 11.456 7.328 12.288 7.744C13.136 8.144 13.784 8.72 14.232 9.472C14.696 10.208 14.928 11.104 14.928 12.16C14.928 12.976 14.704 13.744 14.256 14.464C13.824 15.168 13.128 15.752 12.168 16.216V14.704C13.048 15.04 13.744 15.456 14.256 15.952C14.768 16.448 15.128 17 15.336 17.608C15.544 18.216 15.648 18.856 15.648 19.528C15.648 21.24 15.08 22.584 13.944 23.56C12.824 24.52 11.264 25 9.264 25H1.728ZM4.992 22.12H9.6C10.448 22.12 11.12 21.888 11.616 21.424C12.128 20.944 12.384 20.312 12.384 19.528C12.384 18.744 12.128 18.112 11.616 17.632C11.12 17.152 10.448 16.912 9.6 16.912H4.992V22.12ZM4.992 14.056H9.432C10.104 14.056 10.64 13.864 11.04 13.48C11.44 13.08 11.64 12.568 11.64 11.944C11.64 11.32 11.44 10.824 11.04 10.456C10.64 10.088 10.104 9.904 9.432 9.904H4.992V14.056ZM24.4418 25.288C23.1618 25.288 21.9938 24.992 20.9378 24.4C19.8978 23.808 19.0658 23 18.4418 21.976C17.8338 20.952 17.5298 19.784 17.5298 18.472C17.5298 17.16 17.8338 15.992 18.4418 14.968C19.0658 13.944 19.8978 13.136 20.9378 12.544C21.9778 11.952 23.1458 11.656 24.4418 11.656C25.7218 11.656 26.8818 11.952 27.9218 12.544C28.9618 13.136 29.7858 13.944 30.3938 14.968C31.0178 15.976 31.3298 17.144 31.3298 18.472C31.3298 19.784 31.0178 20.952 30.3938 21.976C29.7698 23 28.9378 23.808 27.8978 24.4C26.8578 24.992 25.7058 25.288 24.4418 25.288ZM24.4418 22.408C25.1458 22.408 25.7618 22.24 26.2898 21.904C26.8338 21.568 27.2578 21.104 27.5618 20.512C27.8818 19.904 28.0418 19.224 28.0418 18.472C28.0418 17.704 27.8818 17.032 27.5618 16.456C27.2578 15.864 26.8338 15.4 26.2898 15.064C25.7618 14.712 25.1458 14.536 24.4418 14.536C23.7218 14.536 23.0898 14.712 22.5458 15.064C22.0018 15.4 21.5698 15.864 21.2498 16.456C20.9458 17.032 20.7938 17.704 20.7938 18.472C20.7938 19.224 20.9458 19.904 21.2498 20.512C21.5698 21.104 22.0018 21.568 22.5458 21.904C23.0898 22.24 23.7218 22.408 24.4418 22.408ZM40.098 25.288C38.818 25.288 37.65 24.992 36.594 24.4C35.554 23.808 34.722 23 34.098 21.976C33.49 20.952 33.186 19.784 33.186 18.472C33.186 17.16 33.49 15.992 34.098 14.968C34.722 13.944 35.554 13.136 36.594 12.544C37.634 11.952 38.802 11.656 40.098 11.656C41.378 11.656 42.538 11.952 43.578 12.544C44.618 13.136 45.442 13.944 46.05 14.968C46.674 15.976 46.986 17.144 46.986 18.472C46.986 19.784 46.674 20.952 46.05 21.976C45.426 23 44.594 23.808 43.554 24.4C42.514 24.992 41.362 25.288 40.098 25.288ZM40.098 22.408C40.802 22.408 41.418 22.24 41.946 21.904C42.49 21.568 42.914 21.104 43.218 20.512C43.538 19.904 43.698 19.224 43.698 18.472C43.698 17.704 43.538 17.032 43.218 16.456C42.914 15.864 42.49 15.4 41.946 15.064C41.418 14.712 40.802 14.536 40.098 14.536C39.378 14.536 38.746 14.712 38.202 15.064C37.658 15.4 37.226 15.864 36.906 16.456C36.602 17.032 36.45 17.704 36.45 18.472C36.45 19.224 36.602 19.904 36.906 20.512C37.226 21.104 37.658 21.568 38.202 21.904C38.746 22.24 39.378 22.408 40.098 22.408ZM55.0879 25.144C53.6159 25.144 52.4719 24.744 51.6559 23.944C50.8559 23.128 50.4559 21.984 50.4559 20.512V14.752H48.1999V11.944H48.4399C49.0799 11.944 49.5759 11.776 49.9279 11.44C50.2799 11.104 50.4559 10.616 50.4559 9.976V8.968H53.5999V11.944H56.5999V14.752H53.5999V20.344C53.5999 20.776 53.6719 21.144 53.8159 21.448C53.9759 21.752 54.2159 21.984 54.5359 22.144C54.8719 22.304 55.2959 22.384 55.8079 22.384C55.9199 22.384 56.0479 22.376 56.1919 22.36C56.3519 22.344 56.5039 22.328 56.6479 22.312V25C56.4239 25.032 56.1679 25.064 55.8799 25.096C55.5919 25.128 55.3279 25.144 55.0879 25.144ZM67.7139 25.288C66.4339 25.288 65.2499 25.056 64.1619 24.592C63.0899 24.128 62.1459 23.48 61.3299 22.648C60.5299 21.816 59.9059 20.84 59.4579 19.72C59.0099 18.6 58.7859 17.376 58.7859 16.048C58.7859 14.72 59.0019 13.496 59.4339 12.376C59.8819 11.24 60.5059 10.264 61.3059 9.448C62.1219 8.616 63.0739 7.976 64.1619 7.528C65.2499 7.064 66.4339 6.832 67.7139 6.832C68.9939 6.832 70.1379 7.048 71.1459 7.48C72.1699 7.912 73.0339 8.488 73.7379 9.208C74.4419 9.912 74.9459 10.688 75.2499 11.536L72.3219 12.904C71.9859 12.008 71.4179 11.272 70.6179 10.696C69.8179 10.104 68.8499 9.808 67.7139 9.808C66.5939 9.808 65.6019 10.072 64.7379 10.6C63.8899 11.128 63.2259 11.856 62.7459 12.784C62.2819 13.712 62.0499 14.8 62.0499 16.048C62.0499 17.296 62.2819 18.392 62.7459 19.336C63.2259 20.264 63.8899 20.992 64.7379 21.52C65.6019 22.048 66.5939 22.312 67.7139 22.312C68.8499 22.312 69.8179 22.024 70.6179 21.448C71.4179 20.856 71.9859 20.112 72.3219 19.216L75.2499 20.584C74.9459 21.432 74.4419 22.216 73.7379 22.936C73.0339 23.64 72.1699 24.208 71.1459 24.64C70.1379 25.072 68.9939 25.288 67.7139 25.288ZM81.3615 25.288C80.4495 25.288 79.6575 25.136 78.9855 24.832C78.3135 24.528 77.7935 24.096 77.4255 23.536C77.0575 22.96 76.8735 22.296 76.8735 21.544C76.8735 20.824 77.0335 20.184 77.3535 19.624C77.6735 19.048 78.1695 18.568 78.8415 18.184C79.5135 17.8 80.3615 17.528 81.3855 17.368L85.6575 16.672V19.072L81.9855 19.696C81.3615 19.808 80.8975 20.008 80.5935 20.296C80.2895 20.584 80.1375 20.96 80.1375 21.424C80.1375 21.872 80.3055 22.232 80.6415 22.504C80.9935 22.76 81.4255 22.888 81.9375 22.888C82.5935 22.888 83.1695 22.752 83.6655 22.48C84.1775 22.192 84.5695 21.8 84.8415 21.304C85.1295 20.808 85.2735 20.264 85.2735 19.672V16.312C85.2735 15.752 85.0495 15.288 84.6015 14.92C84.1695 14.536 83.5935 14.344 82.8735 14.344C82.2015 14.344 81.6015 14.528 81.0735 14.896C80.5615 15.248 80.1855 15.72 79.9455 16.312L77.3775 15.064C77.6335 14.376 78.0335 13.784 78.5775 13.288C79.1375 12.776 79.7935 12.376 80.5455 12.088C81.2975 11.8 82.1135 11.656 82.9935 11.656C84.0655 11.656 85.0095 11.856 85.8255 12.256C86.6415 12.64 87.2735 13.184 87.7215 13.888C88.1855 14.576 88.4175 15.384 88.4175 16.312V25H85.4415V22.768L86.1135 22.72C85.7775 23.28 85.3775 23.752 84.9135 24.136C84.4495 24.504 83.9215 24.792 83.3295 25C82.7375 25.192 82.0815 25.288 81.3615 25.288ZM91.3234 25V11.944H94.2754V14.968L93.9394 14.464C94.1794 13.52 94.6594 12.816 95.3794 12.352C96.0994 11.888 96.9474 11.656 97.9234 11.656C98.9954 11.656 99.9394 11.936 100.755 12.496C101.571 13.056 102.099 13.792 102.339 14.704L101.451 14.776C101.851 13.736 102.451 12.96 103.251 12.448C104.051 11.92 104.971 11.656 106.011 11.656C106.939 11.656 107.763 11.864 108.483 12.28C109.219 12.696 109.795 13.28 110.211 14.032C110.627 14.768 110.835 15.624 110.835 16.6V25H107.691V17.344C107.691 16.768 107.587 16.272 107.379 15.856C107.171 15.44 106.883 15.12 106.515 14.896C106.147 14.656 105.699 14.536 105.171 14.536C104.675 14.536 104.235 14.656 103.851 14.896C103.467 15.12 103.171 15.44 102.963 15.856C102.755 16.272 102.651 16.768 102.651 17.344V25H99.5074V17.344C99.5074 16.768 99.4034 16.272 99.1954 15.856C98.9874 15.44 98.6914 15.12 98.3074 14.896C97.9394 14.656 97.4994 14.536 96.9874 14.536C96.4914 14.536 96.0514 14.656 95.6674 14.896C95.2834 15.12 94.9874 15.44 94.7794 15.856C94.5714 16.272 94.4674 16.768 94.4674 17.344V25H91.3234ZM113.495 29.8V11.944H116.447V14.536L116.159 13.888C116.607 13.184 117.215 12.64 117.983 12.256C118.751 11.856 119.639 11.656 120.647 11.656C121.879 11.656 122.991 11.96 123.983 12.568C124.975 13.176 125.759 13.992 126.335 15.016C126.927 16.04 127.223 17.192 127.223 18.472C127.223 19.736 126.935 20.888 126.359 21.928C125.783 22.968 124.999 23.792 124.007 24.4C123.015 24.992 121.887 25.288 120.623 25.288C119.679 25.288 118.807 25.104 118.007 24.736C117.223 24.352 116.599 23.808 116.135 23.104L116.639 22.48V29.8H113.495ZM120.263 22.408C120.983 22.408 121.623 22.24 122.183 21.904C122.743 21.568 123.175 21.104 123.479 20.512C123.799 19.92 123.959 19.24 123.959 18.472C123.959 17.704 123.799 17.032 123.479 16.456C123.175 15.864 122.743 15.4 122.183 15.064C121.623 14.712 120.983 14.536 120.263 14.536C119.575 14.536 118.951 14.704 118.391 15.04C117.847 15.376 117.415 15.848 117.095 16.456C116.791 17.048 116.639 17.72 116.639 18.472C116.639 19.24 116.791 19.92 117.095 20.512C117.415 21.104 117.847 21.568 118.391 21.904C118.951 22.24 119.575 22.408 120.263 22.408Z" fill="#272323"/>
<circle cx="129" cy="9" r="4" fill="#E5A616"/>
</svg>
